<svg xmlns="http://www.w3.org/2000/svg" viewBox="0 0 24 24" role="img" aria-hidden="true">
  <path fill="#111111" d="M16.37 12.09c.02 2.08 1.82 2.77 1.84 2.78-.02.05-.29.98-.95 1.94-.57.83-1.17 1.66-2.1 1.68-.91.02-1.2-.54-2.24-.54-1.04 0-1.36.52-2.22.56-.89.03-1.56-.89-2.14-1.72-1.18-1.7-2.08-4.8-.87-6.9.6-1.04 1.67-1.7 2.83-1.72.88-.02 1.72.59 2.26.59.54 0 1.55-.73 2.62-.62.45.02 1.7.18 2.5 1.35-.06.04-1.49.87-1.47 2.6Zm-1.77-5.66c.48-.58.8-1.38.71-2.18-.69.03-1.52.46-2.02 1.04-.44.52-.83 1.34-.73 2.12.77.06 1.55-.39 2.04-.98Z"/>
</svg>
