<svg xmlns="http://www.w3.org/2000/svg" viewBox="0 0 24 24" role="img" aria-hidden="true">
  <circle cx="12" cy="12" r="11" fill="#ffffff"/>
  <path fill="#181717" d="M12 1.25a10.75 10.75 0 0 0-3.4 20.95c.54.1.74-.23.74-.52l-.02-1.85c-3.01.66-3.64-1.28-3.64-1.28-.49-1.22-1.2-1.54-1.2-1.54-.98-.67.07-.66.07-.66 1.09.08 1.66 1.12 1.66 1.12.96 1.65 2.53 1.17 3.14.89.1-.71.38-1.18.68-1.46-2.4-.27-4.92-1.2-4.92-5.33 0-1.17.42-2.14 1.11-2.89-.11-.27-.48-1.35.1-2.81 0 0 .91-.29 2.97 1.1a10.3 10.3 0 0 1 5.4 0c2.06-1.39 2.97-1.1 2.97-1.1.58 1.46.21 2.54.1 2.81.69.75 1.11 1.72 1.11 2.89 0 4.14-2.53 5.06-4.94 5.32.39.34.73 1 .73 2.02l-.01 2.99c0 .29.19.63.74.52A10.75 10.75 0 0 0 12 1.25Z"/>
</svg>
