<svg xmlns="http://www.w3.org/2000/svg" viewBox="0 0 18 18" role="img" aria-hidden="true">
  <path fill="#EA4335" d="M9 3.48c1.69 0 2.82.73 3.47 1.34l2.54-2.48C13.45.89 11.45 0 9 0 5.48 0 2.44 2.02.96 4.96l2.91 2.26C4.56 5.17 6.59 3.48 9 3.48Z"/>
  <path fill="#4285F4" d="M17.64 9.2c0-.64-.06-1.25-.16-1.84H9v3.48h4.84c-.21 1.12-.84 2.07-1.8 2.71v2.26h2.91c1.7-1.57 2.69-3.89 2.69-6.61Z"/>
  <path fill="#FBBC05" d="M3.87 10.78A5.41 5.41 0 0 1 3.57 9c0-.62.11-1.22.3-1.78V4.96H.96A8.92 8.92 0 0 0 0 9c0 1.45.35 2.82.96 4.04l2.91-2.26Z"/>
  <path fill="#34A853" d="M9 18c2.43 0 4.47-.8 5.96-2.18l-2.91-2.26c-.8.54-1.84.86-3.05.86-2.41 0-4.44-1.63-5.13-3.82L.96 13.04C2.44 15.98 5.48 18 9 18Z"/>
</svg>
